<svg width="406" height="306" viewBox="0 0 406 306" fill="none" xmlns="http://www.w3.org/2000/svg">
<g clip-path="url(#clip0_308_3)">
<path opacity="0.18" d="M97.0791 65.3735C74.9529 77.1926 52.1552 89.5704 36.733 109.365C27.4714 121.266 21.3005 135.432 18.051 150.173C12.4848 175.333 16.6056 204.502 35.754 221.805C42.417 227.853 50.5663 232.122 58.972 235.403C76.3957 242.189 95.1239 244.966 113.767 243.526C129.077 242.332 144.361 238.298 159.593 240.22C178.173 242.558 194.394 253.423 211.703 260.578C233.21 269.435 256.628 272.629 279.722 269.855C285.544 269.148 291.438 268.015 296.559 265.155C302.637 261.757 307.142 256.206 311.935 251.132C322.739 239.648 335.485 230.159 349.586 223.102C356.982 219.401 364.818 216.331 371.24 211.124C388.154 197.439 391.05 172.95 390.066 151.234C389.082 129.518 384.187 105.546 366.807 92.3586C362.927 89.4166 358.56 87.1358 354.798 84.035C342.251 73.692 338.499 56.3785 330.463 42.2273C312.442 10.5833 272.233 -3.27059 236.033 0.645191C184.159 6.25747 141.675 41.5559 97.0791 65.3735Z" fill="#FC6868"/>
<path d="M315.389 25.873H105.459V269.005H315.389V25.873Z" fill="#FC6868"/>
<path d="M315.389 25.873H105.459V269.005H315.389V25.873Z" fill="url(#paint0_linear_308_3)"/>
<path d="M286.538 37.6255L105.459 53.8576C106.274 53.8576 105.459 31.3059 105.459 25.873H296.379V27.7797C296.379 30.3901 295.342 32.8936 293.497 34.7399C291.652 36.5862 289.149 37.6242 286.538 37.6255V37.6255Z" fill="url(#paint1_linear_308_3)"/>
<path d="M315.389 53.8574H105.459V296.99H315.389V53.8574Z" fill="#FC6868"/>
<path d="M135.304 53.8574H105.459V296.99H135.304V53.8574Z" fill="url(#paint2_linear_308_3)"/>
<path d="M153.438 99.2988H117.176V135.561H153.438V99.2988Z" fill="white"/>
<path d="M191.714 99.2988H155.452V135.561H191.714V99.2988Z" fill="white"/>
<path d="M229.995 99.2988H193.733V135.561H229.995V99.2988Z" fill="white"/>
<path d="M268.272 99.2988H232.01V135.561H268.272V99.2988Z" fill="white"/>
<path d="M153.438 137.154H117.176V173.416H153.438V137.154Z" fill="white"/>
<path d="M191.714 137.154H155.452V173.416H191.714V137.154Z" fill="white"/>
<path d="M229.995 137.154H193.733V173.416H229.995V137.154Z" fill="white"/>
<path d="M268.272 137.154H232.01V173.416H268.272V137.154Z" fill="white"/>
<path d="M153.438 175.012H117.176V211.274H153.438V175.012Z" fill="white"/>
<path d="M191.714 175.012H155.452V211.274H191.714V175.012Z" fill="white"/>
<path d="M229.995 175.012H193.733V211.274H229.995V175.012Z" fill="white"/>
<path d="M268.272 175.012H232.01V211.274H268.272V175.012Z" fill="white"/>
<path d="M153.438 212.867H117.176V249.129H153.438V212.867Z" fill="white"/>
<path d="M191.714 212.867H155.452V249.129H191.714V212.867Z" fill="white"/>
<path d="M229.995 212.867H193.733V249.129H229.995V212.867Z" fill="white"/>
<path d="M268.272 212.867H232.01V249.129H268.272V212.867Z" fill="white"/>
<path d="M153.438 250.723H117.176V286.985H153.438V250.723Z" fill="white"/>
<path d="M191.714 250.723H155.452V286.985H191.714V250.723Z" fill="white"/>
<path d="M229.995 250.723H193.733V286.985H229.995V250.723Z" fill="white"/>
<path d="M305.907 99.2988H269.645V135.561H305.907V99.2988Z" fill="white"/>
<path d="M305.907 61.4434H269.645V97.7054H305.907V61.4434Z" fill="white"/>
<path d="M268.272 61.4434H232.01V97.7054H268.272V61.4434Z" fill="white"/>
<path d="M305.907 137.154H269.645V173.416H305.907V137.154Z" fill="white"/>
<path d="M305.907 175.012H269.645V211.274H305.907V175.012Z" fill="white"/>
<path d="M305.907 212.867H269.645V249.129H305.907V212.867Z" fill="white"/>
<path d="M121.722 16.0431V35.704C121.722 36.765 123.07 37.626 124.725 37.626C126.386 37.626 127.729 36.765 127.729 35.704V16.0431C127.729 14.9822 126.386 14.1211 124.725 14.1211C123.07 14.1211 121.722 14.9822 121.722 16.0431Z" fill="#FC6868"/>
<path d="M150.434 16.0431V35.704C150.434 36.765 151.777 37.626 153.438 37.626C155.098 37.626 156.441 36.765 156.441 35.704V16.0431C156.441 14.9822 155.098 14.1211 153.438 14.1211C151.777 14.1211 150.434 14.9822 150.434 16.0431Z" fill="#FC6868"/>
<path d="M179.147 16.0431V35.704C179.147 36.765 180.489 37.626 182.15 37.626C183.811 37.626 185.153 36.765 185.153 35.704V16.0431C185.153 14.9822 183.811 14.1211 182.15 14.1211C180.489 14.1211 179.147 14.9822 179.147 16.0431Z" fill="#FC6868"/>
<path d="M207.859 16.0431V35.704C207.859 36.765 209.202 37.626 210.862 37.626C212.518 37.626 213.866 36.765 213.866 35.704V16.0431C213.866 14.9822 212.518 14.1211 210.862 14.1211C209.202 14.1211 207.859 14.9822 207.859 16.0431Z" fill="#FC6868"/>
<path d="M236.566 16.0431V35.704C236.566 36.765 237.914 37.626 239.575 37.626C241.23 37.626 242.578 36.765 242.578 35.704V16.0431C242.578 14.9822 241.23 14.1211 239.575 14.1211C237.914 14.1211 236.566 14.9822 236.566 16.0431Z" fill="#FC6868"/>
<path d="M265.278 16.0431V35.704C265.278 36.765 266.626 37.626 268.282 37.626C269.942 37.626 271.29 36.765 271.29 35.704V16.0431C271.29 14.9822 269.942 14.1211 268.282 14.1211C266.626 14.1211 265.278 14.9822 265.278 16.0431Z" fill="#FC6868"/>
<path d="M293.376 16.0431V35.704C293.376 36.765 294.724 37.626 296.379 37.626C298.04 37.626 299.383 36.765 299.383 35.704V16.0431C299.383 14.9822 298.04 14.1211 296.379 14.1211C294.724 14.1211 293.376 14.9822 293.376 16.0431Z" fill="#FC6868"/>
<path d="M320.171 25.873H315.394V296.99H320.171V25.873Z" fill="#FC6868"/>
<path d="M320.171 25.873H315.394V296.99H320.171V25.873Z" fill="url(#paint3_linear_308_3)"/>
<path d="M240.384 66.7574C240.385 67.3281 240.217 67.8863 239.901 68.3614C239.585 68.8365 239.135 69.2072 238.608 69.4265C238.081 69.6458 237.501 69.704 236.941 69.5937C236.381 69.4833 235.866 69.2094 235.462 68.8066C235.058 68.4037 234.782 67.8901 234.67 67.3305C234.557 66.771 234.614 66.1907 234.831 65.663C235.048 65.1353 235.417 64.684 235.891 64.3661C236.365 64.0482 236.923 63.878 237.494 63.877V63.877C238.259 63.8769 238.992 64.1801 239.534 64.72C240.076 65.2599 240.382 65.9925 240.384 66.7574V66.7574Z" fill="url(#paint4_linear_308_3)"/>
<path d="M240.384 104.619C240.385 105.189 240.217 105.748 239.901 106.223C239.585 106.698 239.135 107.068 238.608 107.288C238.081 107.507 237.501 107.565 236.941 107.455C236.381 107.345 235.866 107.071 235.462 106.668C235.058 106.265 234.782 105.751 234.67 105.192C234.557 104.632 234.614 104.052 234.831 103.524C235.048 102.997 235.417 102.545 235.891 102.227C236.365 101.91 236.923 101.739 237.494 101.738V101.738C238.259 101.738 238.992 102.041 239.534 102.581C240.076 103.121 240.382 103.854 240.384 104.619V104.619Z" fill="url(#paint5_linear_308_3)"/>
<path d="M247.432 104.619C247.433 105.189 247.265 105.748 246.948 106.223C246.632 106.698 246.182 107.068 245.655 107.288C245.128 107.507 244.548 107.565 243.988 107.455C243.428 107.345 242.914 107.071 242.509 106.668C242.105 106.265 241.829 105.751 241.717 105.192C241.605 104.632 241.661 104.052 241.878 103.524C242.096 102.997 242.465 102.545 242.939 102.227C243.413 101.91 243.97 101.739 244.541 101.738V101.738C245.306 101.738 246.04 102.041 246.582 102.581C247.123 103.121 247.429 103.854 247.432 104.619V104.619Z" fill="url(#paint6_linear_308_3)"/>
<path d="M254.52 104.619C254.521 105.189 254.353 105.748 254.037 106.223C253.721 106.698 253.271 107.068 252.744 107.288C252.217 107.507 251.637 107.565 251.077 107.455C250.517 107.345 250.002 107.071 249.598 106.668C249.194 106.265 248.918 105.751 248.806 105.192C248.693 104.632 248.749 104.052 248.967 103.524C249.184 102.997 249.553 102.545 250.027 102.227C250.501 101.91 251.059 101.739 251.63 101.738V101.738C252.394 101.738 253.128 102.041 253.67 102.581C254.212 103.121 254.518 103.854 254.52 104.619V104.619Z" fill="url(#paint7_linear_308_3)"/>
<path d="M240.384 180.874C240.384 181.445 240.215 182.002 239.898 182.477C239.581 182.952 239.13 183.321 238.603 183.54C238.076 183.758 237.496 183.815 236.936 183.704C236.376 183.593 235.862 183.318 235.458 182.914C235.055 182.511 234.78 181.997 234.669 181.437C234.557 180.877 234.615 180.297 234.833 179.77C235.051 179.242 235.421 178.792 235.896 178.475C236.37 178.158 236.928 177.988 237.499 177.988V177.988C238.263 177.988 238.995 178.292 239.536 178.832C240.076 179.372 240.379 180.105 240.379 180.869L240.384 180.874Z" fill="url(#paint8_linear_308_3)"/>
<path d="M123.265 183.755C124.855 183.755 126.145 182.465 126.145 180.875C126.145 179.284 124.855 177.994 123.265 177.994C121.674 177.994 120.384 179.284 120.384 180.875C120.384 182.465 121.674 183.755 123.265 183.755Z" fill="#FF2235"/>
<path d="M247.432 180.874C247.432 181.445 247.263 182.002 246.946 182.477C246.628 182.952 246.178 183.321 245.65 183.54C245.123 183.758 244.543 183.815 243.983 183.704C243.424 183.593 242.909 183.318 242.506 182.914C242.102 182.511 241.827 181.997 241.716 181.437C241.605 180.877 241.662 180.297 241.88 179.77C242.099 179.242 242.469 178.792 242.943 178.475C243.418 178.158 243.976 177.988 244.546 177.988V177.988C245.31 177.988 246.043 178.292 246.583 178.832C247.123 179.372 247.427 180.105 247.427 180.869L247.432 180.874Z" fill="url(#paint9_linear_308_3)"/>
<path d="M254.52 180.874C254.52 181.445 254.351 182.002 254.034 182.477C253.717 182.952 253.266 183.321 252.739 183.54C252.212 183.758 251.631 183.815 251.072 183.704C250.512 183.593 249.998 183.318 249.594 182.914C249.191 182.511 248.916 181.997 248.805 181.437C248.693 180.877 248.75 180.297 248.969 179.77C249.187 179.242 249.557 178.792 250.032 178.475C250.506 178.158 251.064 177.988 251.635 177.988V177.988C252.399 177.988 253.131 178.292 253.671 178.832C254.212 179.372 254.515 180.105 254.515 180.869L254.52 180.874Z" fill="url(#paint10_linear_308_3)"/>
<path d="M202.985 230.642L208.151 238.668C208.382 239.026 208.745 239.277 209.161 239.368C209.577 239.458 210.012 239.38 210.37 239.15C210.497 239.065 210.613 238.963 210.714 238.848L224.942 222.447C225.143 222.215 225.274 221.931 225.319 221.627C225.363 221.324 225.319 221.014 225.192 220.734C225.065 220.455 224.86 220.218 224.602 220.052C224.344 219.886 224.044 219.797 223.737 219.797H223.619C223.385 219.796 223.153 219.848 222.94 219.947C222.728 220.046 222.54 220.191 222.389 220.371L211.257 233.697C210.986 234.021 210.598 234.226 210.178 234.265C209.757 234.304 209.338 234.176 209.012 233.907C208.889 233.804 208.782 233.683 208.694 233.548L205.665 228.935C205.496 228.68 205.258 228.478 204.978 228.354C204.699 228.229 204.389 228.187 204.087 228.233V228.233C203.831 228.277 203.59 228.382 203.384 228.539C203.179 228.696 203.015 228.902 202.906 229.137C202.797 229.372 202.748 229.63 202.762 229.889C202.775 230.148 202.852 230.399 202.985 230.622V230.642Z" fill="#FC6868"/>
<path d="M140.778 271.23L147.282 277.632C147.511 277.857 147.667 278.146 147.732 278.461C147.796 278.776 147.765 279.102 147.643 279.4C147.521 279.697 147.314 279.951 147.047 280.13C146.78 280.309 146.466 280.405 146.144 280.404H145.868C145.438 280.404 145.025 280.235 144.719 279.933L138.39 273.598C138.085 273.295 137.673 273.125 137.244 273.125C136.815 273.125 136.403 273.295 136.099 273.598L129.769 279.933C129.619 280.083 129.44 280.202 129.244 280.282C129.048 280.363 128.838 280.405 128.626 280.404H128.344C128.023 280.405 127.708 280.309 127.441 280.13C127.175 279.951 126.967 279.697 126.845 279.4C126.723 279.102 126.692 278.776 126.756 278.461C126.821 278.146 126.977 277.857 127.206 277.632L133.715 271.23C134.017 270.928 134.186 270.519 134.186 270.092C134.186 269.665 134.017 269.256 133.715 268.954V268.954L127.145 262.384C126.919 262.157 126.765 261.869 126.703 261.555C126.641 261.242 126.673 260.917 126.795 260.622C126.918 260.326 127.125 260.074 127.39 259.895C127.656 259.717 127.968 259.622 128.287 259.621V259.621C128.711 259.62 129.118 259.786 129.42 260.082L136.083 266.653C136.386 266.951 136.794 267.118 137.218 267.118C137.643 267.118 138.051 266.951 138.354 266.653L145.017 260.082C145.319 259.786 145.726 259.62 146.149 259.621V259.621C146.47 259.621 146.782 259.716 147.049 259.893C147.315 260.071 147.523 260.324 147.646 260.619C147.768 260.915 147.801 261.24 147.739 261.554C147.677 261.868 147.523 262.157 147.297 262.384L140.727 268.954C140.429 269.26 140.265 269.672 140.271 270.099C140.277 270.525 140.452 270.932 140.758 271.23V271.23H140.778Z" fill="#FC6868"/>
<path d="M82.7742 251.102H84.363L85.1575 287.01L84.363 281.095H82.7742V251.102Z" fill="#FC6868"/>
<path d="M84.363 264.193V264.234C84.363 265.356 83.9633 266.479 83.5379 267.822C80.7394 268.631 78.8738 269.282 76.1266 266.443C73.3794 263.603 70.545 258.114 71.442 255.341C74.2404 254.531 79.6938 257.479 82.4462 260.318C83.871 261.768 84.3528 262.983 84.363 264.193Z" fill="#FC6868"/>
<path d="M92.5585 266.462C90.0368 268.907 88.2634 268.579 85.9519 267.841V281.095H84.363V251.102H85.9519V260.64C86.1005 260.476 86.2594 260.312 86.4337 260.127C89.2731 257.38 94.7624 254.541 97.5352 255.443C98.3502 258.257 95.398 263.71 92.5585 266.462Z" fill="#FC6868"/>
<path d="M92.5585 266.462C90.0368 268.907 88.2634 268.579 85.9519 267.841V281.095H84.363V251.102H85.9519V260.64C86.1005 260.476 86.2594 260.312 86.4337 260.127C89.2731 257.38 94.7624 254.541 97.5352 255.443C98.3502 258.257 95.398 263.71 92.5585 266.462Z" fill="url(#paint11_linear_308_3)"/>
<path d="M84.363 243.859H77.2695C77.2695 248.898 80.4421 252.983 84.3579 252.983L86.0288 248.508L84.363 243.859Z" fill="#FC6868"/>
<path d="M84.486 245.607L84.363 245.694V245.182L84.486 245.607Z" fill="#FC6868"/>
<path d="M70.9346 233.583C70.0377 236.356 72.872 241.851 75.6243 244.685C78.3766 247.519 80.2371 246.879 83.0305 246.064C83.9274 243.291 84.6911 241.4 81.9388 238.56C79.1864 235.721 73.733 232.774 70.9346 233.583Z" fill="#FC6868"/>
<path d="M92.0511 244.72C91.8154 244.951 91.5847 245.156 91.3592 245.34C90.8108 249.676 87.8842 252.982 84.3631 252.982V245.694L84.4861 245.607L84.3631 245.176V245.689C84.2019 245.804 84.0303 245.903 83.8505 245.986C81.3289 244.525 79.289 239.877 79.453 235.925C79.617 231.973 81.6056 226.13 84.2298 224.859C86.7515 226.32 88.3967 232.291 88.2481 236.248V236.54C91.1542 234.546 94.9111 233.019 97.0484 233.711C97.8428 236.52 94.8855 241.968 92.0511 244.72Z" fill="#FC6868"/>
<path d="M92.0511 244.72C91.8154 244.951 91.5847 245.156 91.3592 245.34C90.8108 249.676 87.8842 252.982 84.3631 252.982V245.694L84.4861 245.607L84.3631 245.176V245.689C84.2019 245.804 84.0303 245.903 83.8505 245.986C81.3289 244.525 79.289 239.877 79.453 235.925C79.617 231.973 81.6056 226.13 84.2298 224.859C86.7515 226.32 88.3967 232.291 88.2481 236.248V236.54C91.1542 234.546 94.9111 233.019 97.0484 233.711C97.8428 236.52 94.8855 241.968 92.0511 244.72Z" fill="url(#paint12_linear_308_3)"/>
<path d="M84.486 245.607L84.363 245.694V245.182L84.486 245.607Z" fill="#FC6868"/>
<path d="M70.3452 276.519L72.8463 296.733H84.4143L89.1399 285.232L84.4143 275.955L70.3452 276.519Z" fill="#FC6868"/>
<path d="M98.4886 276.519L95.9874 296.733H84.4143V275.955L98.4886 276.519Z" fill="#FC6868"/>
<path d="M89.5704 276.094L89.4423 276.156L85.5163 278.103L84.4451 278.647H68.8178C68.3461 278.647 67.8938 278.459 67.5602 278.126C67.2267 277.792 67.0393 277.34 67.0393 276.868V272.348C67.0373 272.138 67.0765 271.931 67.1548 271.736C67.233 271.542 67.3487 271.365 67.4953 271.216C67.6419 271.067 67.8165 270.947 68.0091 270.865C68.2017 270.784 68.4086 270.74 68.6179 270.738H68.7666L84.4451 270.769L89.5704 276.094Z" fill="#FC6868"/>
<path d="M89.5704 276.094L89.4423 276.156L85.5163 278.103L84.4451 278.647H68.8178C68.3461 278.647 67.8938 278.459 67.5602 278.126C67.2267 277.792 67.0393 277.34 67.0393 276.868V272.348C67.0373 272.138 67.0765 271.931 67.1548 271.736C67.233 271.542 67.3487 271.365 67.4953 271.216C67.6419 271.067 67.8165 270.947 68.0091 270.865C68.2017 270.784 68.4086 270.74 68.6179 270.738H68.7666L84.4451 270.769L89.5704 276.094Z" fill="url(#paint13_linear_308_3)"/>
<path d="M100.016 278.646H84.4143V270.568H100.016C100.488 270.568 100.94 270.756 101.274 271.089C101.607 271.423 101.794 271.875 101.794 272.347V276.867C101.794 277.339 101.607 277.791 101.274 278.125C100.94 278.459 100.488 278.646 100.016 278.646Z" fill="#FC6868"/>
<path d="M84.4194 278.646V296.734H72.8464L70.6066 278.646H84.4194Z" fill="url(#paint14_linear_308_3)"/>
<path d="M98.2272 278.646L95.9874 296.734H84.4194V278.646H98.2272Z" fill="url(#paint15_linear_308_3)"/>
<path d="M101.794 272.552V277.073C101.794 277.544 101.607 277.997 101.274 278.33C100.94 278.664 100.488 278.851 100.016 278.851H84.4451V270.773H100.042C100.509 270.78 100.955 270.971 101.283 271.303C101.611 271.636 101.794 272.085 101.794 272.552V272.552Z" fill="url(#paint16_linear_308_3)"/>
<path opacity="0.18" d="M74.1943 296.76L44.7952 302.397C44.5475 302.4 44.3029 302.453 44.0767 302.554C43.8505 302.655 43.6475 302.801 43.4803 302.984C43.3132 303.166 43.1854 303.382 43.105 303.616C43.0246 303.85 42.9933 304.098 43.0131 304.345C43.0328 304.592 43.1032 304.832 43.2198 305.051C43.3364 305.269 43.4968 305.462 43.6909 305.615C43.885 305.769 44.1087 305.881 44.348 305.945C44.5874 306.009 44.8373 306.022 45.0822 305.985H45.1693H377.222C377.689 306.005 378.146 305.841 378.495 305.529C378.844 305.216 379.058 304.78 379.09 304.313C379.123 303.846 378.972 303.385 378.67 303.027C378.368 302.669 377.939 302.443 377.473 302.397L334.619 297.006H334.373L74.5684 296.749C74.4437 296.74 74.3183 296.743 74.1943 296.76V296.76Z" fill="#1D2741"/>
</g>
<defs>
<linearGradient id="paint0_linear_308_3" x1="223.753" y1="-35.575" x2="213.994" y2="98.4227" gradientUnits="userSpaceOnUse">
<stop stop-opacity="0"/>
<stop offset="0.91" stop-opacity="0.8"/>
<stop offset="1"/>
</linearGradient>
<linearGradient id="paint1_linear_308_3" x1="199.038" y1="10.743" x2="201.35" y2="46.5283" gradientUnits="userSpaceOnUse">
<stop offset="0.01"/>
<stop offset="0.1" stop-opacity="0.77"/>
<stop offset="0.99" stop-opacity="0"/>
</linearGradient>
<linearGradient id="paint2_linear_308_3" x1="173.15" y1="175.267" x2="-119.55" y2="176.128" gradientUnits="userSpaceOnUse">
<stop stop-opacity="0"/>
<stop offset="0.91" stop-opacity="0.8"/>
<stop offset="1"/>
</linearGradient>
<linearGradient id="paint3_linear_308_3" x1="379.938" y1="151.762" x2="146.154" y2="188.132" gradientUnits="userSpaceOnUse">
<stop stop-opacity="0"/>
<stop offset="0.91" stop-opacity="0.8"/>
<stop offset="1"/>
</linearGradient>
<linearGradient id="paint4_linear_308_3" x1="237.34" y1="64.3382" x2="238.304" y2="78.9609" gradientUnits="userSpaceOnUse">
<stop stop-color="#183866"/>
<stop offset="1" stop-color="#1A7FC1"/>
</linearGradient>
<linearGradient id="paint5_linear_308_3" x1="237.34" y1="102.2" x2="238.304" y2="116.827" gradientUnits="userSpaceOnUse">
<stop stop-color="#183866"/>
<stop offset="1" stop-color="#1A7FC1"/>
</linearGradient>
<linearGradient id="paint6_linear_308_3" x1="244.387" y1="102.2" x2="245.346" y2="116.827" gradientUnits="userSpaceOnUse">
<stop stop-color="#183866"/>
<stop offset="1" stop-color="#1A7FC1"/>
</linearGradient>
<linearGradient id="paint7_linear_308_3" x1="251.476" y1="102.2" x2="252.434" y2="116.827" gradientUnits="userSpaceOnUse">
<stop stop-color="#183866"/>
<stop offset="1" stop-color="#1A7FC1"/>
</linearGradient>
<linearGradient id="paint8_linear_308_3" x1="237.335" y1="178.45" x2="238.298" y2="193.077" gradientUnits="userSpaceOnUse">
<stop stop-color="#183866"/>
<stop offset="1" stop-color="#1A7FC1"/>
</linearGradient>
<linearGradient id="paint9_linear_308_3" x1="244.387" y1="178.45" x2="245.346" y2="193.077" gradientUnits="userSpaceOnUse">
<stop stop-color="#183866"/>
<stop offset="1" stop-color="#1A7FC1"/>
</linearGradient>
<linearGradient id="paint10_linear_308_3" x1="251.476" y1="178.45" x2="252.434" y2="193.077" gradientUnits="userSpaceOnUse">
<stop stop-color="#183866"/>
<stop offset="1" stop-color="#1A7FC1"/>
</linearGradient>
<linearGradient id="paint11_linear_308_3" x1="87.7253" y1="282.397" x2="90.903" y2="254.976" gradientUnits="userSpaceOnUse">
<stop offset="0.1" stop-opacity="0.77"/>
<stop offset="0.99" stop-opacity="0"/>
</linearGradient>
<linearGradient id="paint12_linear_308_3" x1="99.7392" y1="240.425" x2="83.4303" y2="238.836" gradientUnits="userSpaceOnUse">
<stop offset="0.1" stop-opacity="0.77"/>
<stop offset="0.99" stop-opacity="0"/>
</linearGradient>
<linearGradient id="paint13_linear_308_3" x1="78.8174" y1="240.965" x2="78.2536" y2="277.56" gradientUnits="userSpaceOnUse">
<stop offset="0.36" stop-opacity="0.77"/>
<stop offset="0.99" stop-opacity="0"/>
</linearGradient>
<linearGradient id="paint14_linear_308_3" x1="77.3106" y1="271.768" x2="77.8897" y2="291.204" gradientUnits="userSpaceOnUse">
<stop offset="0.01"/>
<stop offset="0.1" stop-opacity="0.77"/>
<stop offset="0.99" stop-opacity="0"/>
</linearGradient>
<linearGradient id="paint15_linear_308_3" x1="97.2021" y1="274.582" x2="84.6449" y2="298.102" gradientUnits="userSpaceOnUse">
<stop offset="0.01"/>
<stop offset="0.1" stop-opacity="0.77"/>
<stop offset="0.99" stop-opacity="0"/>
</linearGradient>
<linearGradient id="paint16_linear_308_3" x1="97.9043" y1="257.529" x2="90.5494" y2="282.931" gradientUnits="userSpaceOnUse">
<stop offset="0.1" stop-opacity="0.77"/>
<stop offset="0.99" stop-opacity="0"/>
</linearGradient>
<clipPath id="clip0_308_3">
<rect width="406" height="306" fill="white"/>
</clipPath>
</defs>
</svg>
