<svg width="910" height="689" viewBox="0 0 910 689" fill="none" xmlns="http://www.w3.org/2000/svg">
<g clip-path="url(#clip0_196_385)">
<path opacity="0.18" d="M780.603 630.001C769.807 636.544 757.679 642.509 745.03 648.944C696.753 673.654 640.469 676.329 587.334 678.354L332.886 688.115C290.026 689.742 245.564 691.097 206.104 674.269C183.348 664.288 163.203 649.148 147.246 630.037C121.714 600.139 104.728 561.583 96.1626 522.847C82.1636 459.472 86.608 393.712 85.5464 328.82C84.9346 291.023 82.4335 252.901 88.8932 215.646C95.3529 178.392 112.033 141.264 142.424 118.958C183.288 88.9882 236.801 91.9346 284.574 85.6261C334.956 78.9742 378.14 54.2644 423.034 31.9406C470.07 8.58653 523.637 -3.92201 576.178 1.08502C629.295 6.18243 667.801 30.4765 697.563 75.0698C718.092 105.842 730.574 141.314 733.856 178.211C737.689 221.593 728.656 265.662 735.062 308.773C747.657 393.242 817.184 461.858 824.904 546.924C828.952 591.336 809.339 612.63 780.603 630.001Z" fill="#FC6868"/>
<path opacity="0.41" d="M780.603 630C769.807 636.543 757.679 642.509 745.03 648.944C696.753 673.653 640.469 676.329 587.334 678.353L332.886 688.114C290.026 689.741 245.563 691.097 206.104 674.268C183.348 664.287 163.203 649.148 147.246 630.036L780.603 630Z" fill="#FC6868"/>
<path d="M445.383 140.847C445.059 149.017 446.174 157.115 446.534 165.34C446.812 168.382 446.513 171.448 445.652 174.378C443.637 180.018 438.167 183.542 433.057 186.652C429.818 188.622 426.129 191.442 426.579 195.238C426.891 196.669 427.655 197.96 428.758 198.918C429.861 199.876 431.243 200.449 432.697 200.552C435.613 200.683 438.519 200.113 441.172 198.889C446.601 197.115 451.576 194.165 455.747 190.249C463.898 181.735 464.168 168.558 463.556 156.754C463.034 146.848 462.189 135.967 457.186 127.146C449.125 113.046 445.67 133.779 445.383 140.847Z" fill="#FC6868"/>
<path d="M445.383 140.847C445.059 149.017 446.174 157.115 446.534 165.34C446.812 168.382 446.513 171.448 445.652 174.378C443.637 180.018 438.167 183.542 433.057 186.652C429.818 188.622 426.129 191.442 426.579 195.238C426.891 196.669 427.655 197.96 428.758 198.918C429.861 199.876 431.243 200.449 432.697 200.552C435.613 200.683 438.519 200.113 441.172 198.889C446.601 197.115 451.576 194.165 455.747 190.249C463.898 181.735 464.168 168.558 463.556 156.754C463.034 146.848 462.189 135.967 457.186 127.146C449.125 113.046 445.67 133.779 445.383 140.847Z" fill="url(#paint0_linear_196_385)"/>
<path d="M421.343 189.833C417.618 188.532 413.66 186.76 409.935 188.026C409.579 188.106 409.248 188.271 408.969 188.507C408.69 188.743 408.472 189.043 408.334 189.381C408.255 189.878 408.324 190.387 408.532 190.845L412.85 203.697C413.045 204.337 413.33 204.946 413.696 205.505C414.554 206.487 415.712 207.155 416.989 207.403C421.677 208.704 426.657 208.47 431.204 206.734C435.918 204.927 436.332 199.106 433.831 195.021C431.329 190.936 425.661 191.334 421.343 189.833Z" fill="url(#paint1_linear_196_385)"/>
<path d="M412.562 166.605C413.786 166.913 413.318 167.636 413.444 168.883C414.29 176.8 413.57 185.712 415.243 193.466C416.917 201.221 422.063 208.09 423.016 216.007C419.22 208.198 415.819 200.787 413.894 192.219C413.552 190.104 410.709 166.605 412.562 166.605Z" fill="#093F68"/>
<path d="M445.077 240.808C445.077 240.808 409.341 283.684 433.165 320.432C456.988 357.18 499.255 384.511 515.342 412.312C531.428 440.113 502.242 470.263 492.112 475.903C481.981 481.543 389.692 549.888 446.858 620.077H639.803C639.803 620.077 702.331 556.486 598.112 479.681C598.112 479.681 523.673 441.523 593.344 387.331C663.015 333.139 675.521 281.551 642.484 241.278L445.077 240.808Z" fill="#FC6868"/>
<path d="M445.077 240.808C445.077 240.808 409.341 283.684 433.165 320.432C456.988 357.18 499.255 384.511 515.342 412.312C531.428 440.113 502.242 470.263 492.112 475.903C481.981 481.543 389.692 549.888 446.858 620.077H639.803C639.803 620.077 702.331 556.486 598.112 479.681C598.112 479.681 523.673 441.523 593.344 387.331C663.015 333.139 675.521 281.551 642.484 241.278L445.077 240.808Z" fill="url(#paint2_linear_196_385)"/>
<path d="M653.424 223.256H430.088C425.04 223.256 420.947 227.367 420.947 232.438V232.457C420.947 237.528 425.04 241.639 430.088 241.639H653.424C658.473 241.639 662.565 237.528 662.565 232.457V232.438C662.565 227.367 658.473 223.256 653.424 223.256Z" fill="#FC6868"/>
<path d="M653.424 620.8H430.088C425.04 620.8 420.947 624.911 420.947 629.982V630.001C420.947 635.072 425.04 639.183 430.088 639.183H653.424C658.473 639.183 662.565 635.072 662.565 630.001V629.982C662.565 624.911 658.473 620.8 653.424 620.8Z" fill="#FC6868"/>
<path d="M653.424 223.256H430.088C425.04 223.256 420.947 227.367 420.947 232.438V232.457C420.947 237.528 425.04 241.639 430.088 241.639H653.424C658.473 241.639 662.565 237.528 662.565 232.457V232.438C662.565 227.367 658.473 223.256 653.424 223.256Z" fill="url(#paint3_linear_196_385)"/>
<path d="M653.424 620.8H430.088C425.04 620.8 420.947 624.911 420.947 629.982V630.001C420.947 635.072 425.04 639.183 430.088 639.183H653.424C658.473 639.183 662.565 635.072 662.565 630.001V629.982C662.565 624.911 658.473 620.8 653.424 620.8Z" fill="url(#paint4_linear_196_385)"/>
<path d="M623.519 522.448C590.825 504.914 482.647 502.004 462.116 517.025C481.28 491.538 507.604 476.535 507.604 476.535C533.515 460.267 562.989 474.402 562.989 474.402C562.989 474.402 600.469 493.671 623.519 522.448Z" fill="url(#paint5_linear_196_385)"/>
<path d="M622.835 618.666H461.145L454.901 613.027C436.44 581.285 440.974 553.25 453.102 530.944C455.76 526.12 458.767 521.498 462.098 517.116C482.629 502.004 590.807 504.915 623.501 522.539C626.848 526.688 629.856 531.1 632.498 535.734C634.245 538.796 635.772 541.98 637.068 545.26C653.191 586.166 622.835 618.666 622.835 618.666Z" fill="#FC6868"/>
<path d="M632.552 535.644C624.833 563.878 547.856 520.803 511.995 517.568C488.315 515.453 463.304 529.932 463.304 529.932C463.304 529.932 455.225 532.878 453.066 530.908C455.724 526.084 458.731 521.462 462.062 517.08C482.593 501.968 590.771 504.879 623.465 522.503C626.84 526.631 629.879 531.026 632.552 535.644Z" fill="url(#paint6_linear_196_385)"/>
<path d="M461.739 343.515C461.739 343.515 517.123 387.331 520.704 395.808C524.284 404.286 553.092 409.239 562.089 401.701C571.086 394.163 593.938 379.793 616.574 347.274C639.209 314.756 564.77 335.977 539.759 340.695C514.748 345.413 471.869 314.774 461.739 343.515Z" fill="#FC6868"/>
<path d="M461.739 343.515C461.739 343.515 483.187 357.65 502.242 353.402C521.297 349.154 533.803 336.917 560.002 339.267C586.2 341.617 612.399 352.932 620.748 340.695C629.097 328.457 620.154 318.534 593.938 321.842C567.721 325.15 524.266 325.601 503.43 324.192C482.593 322.782 444.483 326.089 461.739 343.515Z" fill="#FC6868"/>
<path d="M461.739 343.515C461.739 343.515 483.187 357.65 502.242 353.402C521.297 349.154 533.803 336.917 560.002 339.267C586.2 341.617 612.399 352.932 620.748 340.695C629.097 328.457 620.154 318.534 593.938 321.842C567.721 325.15 524.266 325.601 503.43 324.192C482.593 322.782 444.483 326.089 461.739 343.515Z" fill="url(#paint7_linear_196_385)"/>
<path d="M539.183 416.397C537.661 417.402 536.421 418.784 535.584 420.41C535.283 420.909 535.09 421.466 535.015 422.045C534.941 422.624 534.988 423.212 535.152 423.772C535.407 424.386 535.84 424.908 536.396 425.27C536.952 425.631 537.604 425.815 538.265 425.797C539.395 425.688 540.469 425.255 541.36 424.549C543.16 423.374 545.139 421.874 544.869 420.048C544.599 418.223 541.792 416.921 539.381 416.198" fill="#FC6868"/>
<path d="M549.224 433.117C548.617 433.273 548.048 433.549 547.55 433.931C547.298 434.148 547.154 434.383 547.352 434.617C547.76 434.924 548.265 435.072 548.774 435.033C549.256 435.004 549.733 434.919 550.195 434.78C551.023 434.527 551.995 434.22 551.797 433.858C551.599 433.497 550.393 433.226 549.296 433.081" fill="#FC6868"/>
<path d="M539.543 438.413C538.936 438.569 538.367 438.845 537.869 439.227C537.618 439.443 537.492 439.697 537.671 439.913C538.08 440.22 538.585 440.368 539.093 440.329C539.576 440.309 540.054 440.224 540.515 440.076C541.342 439.841 542.314 439.534 542.134 439.154C541.954 438.775 540.712 438.522 539.615 438.377" fill="#FC6868"/>
<path d="M554.927 463.087C554.147 462.753 553.31 462.575 552.462 462.562C551.994 462.562 551.581 462.671 551.473 463.014C551.484 463.298 551.561 463.575 551.699 463.823C551.836 464.072 552.03 464.284 552.264 464.442C552.734 464.799 553.256 465.08 553.812 465.274C554.837 465.672 555.989 466.069 556.331 465.653C556.673 465.238 555.827 464.045 555.017 463.087" fill="#FC6868"/>
<path d="M526.354 495.226C525.579 494.894 524.748 494.716 523.906 494.702C523.421 494.702 523.007 494.829 522.917 495.154C522.827 495.479 523.097 496.094 523.691 496.582C524.163 496.944 524.692 497.225 525.256 497.414C526.264 497.811 527.433 498.209 527.757 497.793C528.081 497.377 527.253 496.184 526.462 495.226" fill="#FC6868"/>
<path d="M449.341 129.569C449.068 124.762 450.328 119.994 452.94 115.958C455.549 111.955 459.04 108.609 463.142 106.178C465.382 104.555 468.102 103.74 470.861 103.865C473.147 104.154 481.064 95.5136 482.917 96.8874C488.135 100.774 487.092 115.144 491.518 119.934C492.679 126.36 493.401 132.859 493.677 139.384L496.322 188.659C496.754 196.811 496.97 205.686 492.112 212.158C479.877 207.692 467.972 202.365 456.484 196.215C455.16 195.739 454.042 194.815 453.323 193.601C452.603 192.387 452.328 190.959 452.544 189.563C452.058 177.307 452.058 165.016 452.544 152.76C452.76 146.18 449.881 136.148 449.341 129.569Z" fill="#FC6868"/>
<path d="M449.341 129.569C449.068 124.762 450.328 119.994 452.94 115.958C455.549 111.955 459.04 108.609 463.142 106.178C465.382 104.555 468.102 103.74 470.861 103.865C473.147 104.154 481.064 95.5136 482.917 96.8874C488.135 100.774 487.092 115.144 491.518 119.934C492.679 126.36 493.401 132.859 493.677 139.384L496.322 188.659C496.754 196.811 496.97 205.686 492.112 212.158C479.877 207.692 467.972 202.365 456.484 196.215C455.16 195.739 454.042 194.815 453.323 193.601C452.603 192.387 452.328 190.959 452.544 189.563C452.058 177.307 452.058 165.016 452.544 152.76C452.76 146.18 449.881 136.148 449.341 129.569Z" fill="url(#paint8_linear_196_385)"/>
<path d="M439.516 92.5665V93.9764C439.468 95.7472 439.951 97.4916 440.902 98.9834C442.701 101.225 445.976 101.315 448.765 100.899C450.939 100.345 453.195 100.192 455.423 100.448C457.636 100.936 460.083 110.046 462.206 110.407C466.075 111.076 474.28 106.304 476.943 103.9C477.213 103.665 474.118 96.6697 474.226 96.2901C474.316 95.922 474.316 95.5375 474.226 95.1694L469.908 74.9967C469.507 72.1259 468.468 69.3826 466.867 66.971C465.592 65.4113 463.971 64.1731 462.134 63.3558C456.035 60.554 447.092 61.5482 442.629 67.1156C440.272 70.0619 440.308 75.1774 439.93 78.7926C439.449 83.367 439.31 87.9712 439.516 92.5665Z" fill="url(#paint9_linear_196_385)"/>
<path d="M471.329 233.649C459.417 241.368 445.814 245.923 432.373 250.388C429.062 251.49 425.176 252.539 422.243 250.767C420.585 249.597 419.273 247.998 418.446 246.14C413.156 236.053 399.931 233.053 406.426 223.708C409.179 219.731 424.78 206.698 428.63 203.824C436.26 198.13 444.249 192.273 453.623 190.701C458.027 190.059 462.499 190.059 466.903 190.701C475.414 191.731 496.88 195.021 495.081 205.993C493.281 216.965 479.948 228.01 471.329 233.649Z" fill="#093F68"/>
<path d="M474.928 137.739C474.928 144.969 475.684 152.199 473.309 158.996C470.124 168.034 461.811 174.234 453.516 179.114C448.387 182.151 442.827 185.206 440.074 190.484C437.321 195.762 439.265 203.933 445.113 204.945C447.384 205.179 449.677 204.843 451.788 203.969C463.11 200.209 474.046 195.367 484.447 189.508C488.711 187.086 493.03 184.356 495.657 180.217C497.934 176.026 499.169 171.344 499.255 166.57C500.108 156.325 499.806 146.017 498.356 135.841C496.68 127.825 493.557 120.186 489.143 113.3C474.928 93.9587 474.928 127.074 474.928 137.739Z" fill="#FC6868"/>
<path d="M474.928 137.739C474.928 144.969 475.684 152.199 473.309 158.996C470.124 168.034 461.811 174.234 453.516 179.114C448.387 182.151 442.827 185.206 440.074 190.484C437.321 195.762 439.265 203.933 445.113 204.945C447.384 205.179 449.677 204.843 451.788 203.969C463.11 200.209 474.046 195.367 484.447 189.508C488.711 187.086 493.03 184.356 495.657 180.217C497.934 176.026 499.169 171.344 499.255 166.57C500.108 156.325 499.806 146.017 498.356 135.841C496.68 127.825 493.557 120.186 489.143 113.3C474.928 93.9587 474.928 127.074 474.928 137.739Z" fill="url(#paint10_linear_196_385)"/>
<path d="M396.71 265.481L393.633 324.643C400.83 324.191 404.105 315.804 405.832 308.881C410.727 289.239 415.627 269.596 420.533 249.954C421.973 244.133 423.448 238.078 422.333 232.185C421.541 228.009 417.798 220.761 412.814 220.309C407.506 219.839 404.717 226.69 402.882 230.811C398.077 241.639 397.303 253.84 396.71 265.481Z" fill="url(#paint11_linear_196_385)"/>
<path d="M407.416 269.476L409.503 328.674C416.539 327.59 419.148 318.949 420.299 311.9C423.466 291.908 426.639 271.91 429.818 251.906C430.754 245.977 431.617 239.831 430.07 234.047C428.918 229.962 424.564 223.075 419.562 223.057C414.164 223.057 412.058 230.106 410.565 234.39C406.714 245.543 407.002 257.907 407.416 269.476Z" fill="url(#paint12_linear_196_385)"/>
<path d="M404.429 312.623L397.735 313.111C397.041 313.071 396.347 313.173 395.694 313.413C395.041 313.652 394.443 314.023 393.939 314.503C393.392 315.351 393.121 316.349 393.165 317.359C392.985 320.974 392.949 324.589 393.165 328.06C393.129 328.202 393.129 328.351 393.165 328.494C393.267 328.615 393.398 328.709 393.546 328.766C393.694 328.823 393.854 328.841 394.011 328.819C396.571 328.797 399.084 328.126 401.316 326.867C402.265 326.421 403.083 325.736 403.691 324.879C404.243 323.846 404.522 322.688 404.501 321.516C404.681 318.498 404.753 315.461 404.645 312.479L404.429 312.623Z" fill="#FC6868"/>
<path d="M404.285 324.788C404.271 324.534 404.197 324.286 404.069 324.065C403.9 323.889 403.675 323.776 403.432 323.746C403.19 323.716 402.944 323.772 402.738 323.903C402.338 324.189 401.986 324.537 401.694 324.933C400.538 326.304 398.915 327.193 397.142 327.428C395.336 327.385 393.531 327.494 391.743 327.753C390.454 328.259 389.284 329.028 388.307 330.012L382.477 335.074C381.109 336.249 379.616 337.785 379.94 339.575C380.194 340.358 380.669 341.05 381.308 341.567C381.947 342.084 382.722 342.403 383.538 342.485C386.486 342.808 389.468 342.437 392.247 341.4C394.84 340.703 397.388 339.845 399.877 338.833C401.182 338.365 402.347 337.569 403.259 336.52C405.257 333.826 404.591 327.952 404.285 324.788Z" fill="#093F68"/>
<path d="M420.497 313.419L413.75 313.943C413.053 313.904 412.356 314.007 411.701 314.246C411.045 314.486 410.444 314.856 409.935 315.335C409.404 316.189 409.141 317.184 409.179 318.191C408.981 321.806 408.963 325.421 409.089 328.892C409.092 329.046 409.122 329.2 409.179 329.343C409.281 329.46 409.409 329.55 409.554 329.604C409.699 329.657 409.854 329.673 410.007 329.651C412.574 329.64 415.096 328.968 417.33 327.699C418.279 327.26 419.098 326.581 419.706 325.728C420.236 324.688 420.508 323.535 420.497 322.366C420.701 319.329 420.755 316.317 420.659 313.328L420.497 313.419Z" fill="#FC6868"/>
<path d="M420.353 325.529C420.352 325.269 420.283 325.014 420.155 324.788C419.983 324.609 419.753 324.497 419.507 324.471C419.26 324.444 419.012 324.506 418.806 324.643C418.408 324.926 418.061 325.274 417.78 325.674C416.621 327.038 414.999 327.921 413.228 328.15C411.422 328.122 409.617 328.237 407.83 328.494C406.536 328.992 405.36 329.756 404.375 330.735L398.545 335.796C397.196 336.989 395.702 338.526 396.008 340.297C396.264 341.079 396.74 341.771 397.379 342.287C398.017 342.803 398.791 343.123 399.607 343.207C402.56 343.541 405.55 343.17 408.334 342.123C410.928 341.431 413.477 340.573 415.963 339.556C417.264 339.089 418.424 338.292 419.328 337.242C421.325 334.549 420.659 328.729 420.353 325.529Z" fill="#093F68"/>
<path d="M426.219 195.436C422.297 195.635 417.96 195.436 414.973 198.039C414.676 198.239 414.431 198.507 414.259 198.822C414.087 199.137 413.992 199.488 413.984 199.847C414.093 200.337 414.343 200.783 414.703 201.13L423.502 211.416C423.922 211.967 424.426 212.449 424.996 212.844C426.154 213.419 427.469 213.597 428.738 213.35C433.576 212.806 438.111 210.715 441.676 207.385C445.275 203.932 443.601 198.347 439.75 195.545C435.9 192.743 430.79 195.201 426.219 195.436Z" fill="url(#paint13_linear_196_385)"/>
<path d="M471.419 48.0276C483.763 49.094 494.811 56.939 502.296 66.8446C510.087 77.1479 516.313 90.8314 528.909 93.5427C534.577 94.7719 540.497 93.3801 546.254 93.9766C551.624 94.6442 556.652 96.9777 560.638 100.652C564.625 104.326 567.371 109.158 568.495 114.475C569.844 121.506 568.189 128.773 568.908 135.895C570.33 149.94 580.874 163.298 576.934 176.837C573.803 187.538 560.739 194.027 550.321 189.942C539.237 185.585 534.433 172.878 526.929 163.551C523.672 159.484 518.904 155.67 513.794 156.628C511.257 157.116 509.044 158.725 506.597 159.375C500.839 160.876 494.847 156.808 491.914 151.603C488.981 146.397 488.315 140.251 487.397 134.358C486.066 126.043 483.799 117.511 478.401 111.131C471.707 103.322 460.821 99.4355 455.765 90.4698C452.778 85.1555 452.256 78.8832 449.539 73.4785C447.128 68.7245 442.503 66.2481 444.537 60.6265C447.937 51.3355 462.872 47.3045 471.419 48.0276Z" fill="#093F68"/>
<path d="M437.555 60.4282C437.264 61.9476 437.339 63.5151 437.774 64.9994C438.209 66.4838 438.992 67.8419 440.056 68.96C442.219 71.173 444.635 73.1207 447.254 74.7624C449.865 76.421 452.023 78.7072 453.534 81.4143C453.689 81.8712 453.948 82.2857 454.289 82.6254C454.466 82.7805 454.693 82.866 454.928 82.866C455.163 82.866 455.39 82.7805 455.567 82.6254C455.741 82.3841 455.829 82.0915 455.819 81.7939C456.179 76.7327 455.261 71.6895 455.261 66.6282C455.261 63.1938 456.287 58.8194 454.235 55.7827C450.295 49.908 439.139 54.6258 437.555 60.4282Z" fill="#093F68"/>
<path d="M403.493 171.667C403.262 173.064 403.564 174.497 404.339 175.68C405.958 177.759 409.521 177.217 411.213 175.21C412.745 173.019 413.389 170.324 413.012 167.673C412.83 170.082 413.329 172.495 414.451 174.632C415.765 176.62 418.788 177.687 420.605 176.132C421.1 175.641 421.48 175.046 421.72 174.39C421.959 173.733 422.052 173.032 421.991 172.336C421.945 169.907 420.957 167.592 419.238 165.883C420.176 167.252 421.565 168.245 423.16 168.685C423.954 168.911 424.795 168.911 425.589 168.685C426.382 168.365 427.044 167.786 427.468 167.041C427.893 166.297 428.055 165.43 427.929 164.582C427.777 163.739 427.446 162.94 426.958 162.238C426.471 161.536 425.838 160.948 425.104 160.515C423.625 159.637 422.005 159.025 420.317 158.707C421.523 157.839 422.908 157.243 424.096 156.357C424.718 155.958 425.246 155.428 425.643 154.804C426.041 154.18 426.299 153.476 426.399 152.742C426.525 150.247 423.754 148.422 421.271 148.621C418.82 149.066 416.575 150.289 414.865 152.109C413.268 150.585 411.349 149.442 409.251 148.765C408.198 148.441 407.078 148.408 406.008 148.669C404.938 148.93 403.957 149.475 403.169 150.247C402.745 150.803 402.444 151.443 402.287 152.125C402.131 152.807 402.122 153.516 402.262 154.201C402.402 154.887 402.688 155.535 403.099 156.1C403.51 156.665 404.037 157.135 404.645 157.478C403.079 157.638 401.505 157.716 399.931 157.713C399.139 157.729 398.364 157.938 397.671 158.322C396.978 158.706 396.389 159.254 395.954 159.918C395.616 160.741 395.577 161.657 395.843 162.507C396.11 163.356 396.665 164.084 397.411 164.564C398.173 165.02 399.024 165.307 399.906 165.404C400.788 165.5 401.68 165.405 402.522 165.124C403.601 164.799 405.617 163.118 406.588 163.877C405.563 166.715 403.799 168.595 403.493 171.667Z" fill="#FC6868"/>
<path d="M413.21 164.166C416.579 164.166 419.31 162.118 419.31 159.593C419.31 157.067 416.579 155.02 413.21 155.02C409.841 155.02 407.11 157.067 407.11 159.593C407.11 162.118 409.841 164.166 413.21 164.166Z" fill="white"/>
</g>
<defs>
<linearGradient id="paint0_linear_196_385" x1="477.519" y1="172.751" x2="411.968" y2="151.974" gradientUnits="userSpaceOnUse">
<stop offset="0.01"/>
<stop offset="0.13" stop-opacity="0.69"/>
<stop offset="1" stop-opacity="0"/>
</linearGradient>
<linearGradient id="paint1_linear_196_385" x1="406.884" y1="193.078" x2="434.484" y2="204.167" gradientUnits="userSpaceOnUse">
<stop stop-color="#E5C5D5"/>
<stop offset="0.42" stop-color="#EAD4D1"/>
<stop offset="1" stop-color="#F0E9CB"/>
</linearGradient>
<linearGradient id="paint2_linear_196_385" x1="424.978" y1="430.442" x2="659.938" y2="430.442" gradientUnits="userSpaceOnUse">
<stop offset="0.02" stop-color="white" stop-opacity="0"/>
<stop offset="0.32" stop-color="white" stop-opacity="0.39"/>
<stop offset="0.68" stop-color="white" stop-opacity="0.68"/>
<stop offset="1" stop-color="white"/>
</linearGradient>
<linearGradient id="paint3_linear_196_385" x1="540.802" y1="251.219" x2="542.618" y2="215.809" gradientUnits="userSpaceOnUse">
<stop offset="0.01"/>
<stop offset="0.13" stop-opacity="0.69"/>
<stop offset="1" stop-opacity="0"/>
</linearGradient>
<linearGradient id="paint4_linear_196_385" x1="541.756" y1="586.871" x2="541.756" y2="671.684" gradientUnits="userSpaceOnUse">
<stop offset="0.01"/>
<stop offset="0.13" stop-opacity="0.69"/>
<stop offset="1" stop-opacity="0"/>
</linearGradient>
<linearGradient id="paint5_linear_196_385" x1="552.588" y1="470.859" x2="540.081" y2="532.856" gradientUnits="userSpaceOnUse">
<stop offset="0.02" stop-color="white" stop-opacity="0"/>
<stop offset="0.32" stop-color="white" stop-opacity="0.39"/>
<stop offset="0.68" stop-color="white" stop-opacity="0.68"/>
<stop offset="1" stop-color="white"/>
</linearGradient>
<linearGradient id="paint6_linear_196_385" x1="553.992" y1="477.53" x2="526.382" y2="614.37" gradientUnits="userSpaceOnUse">
<stop offset="0.01"/>
<stop offset="0.13" stop-opacity="0.69"/>
<stop offset="1" stop-opacity="0"/>
</linearGradient>
<linearGradient id="paint7_linear_196_385" x1="541.378" y1="358.861" x2="539.254" y2="294.114" gradientUnits="userSpaceOnUse">
<stop offset="0.01"/>
<stop offset="0.13" stop-opacity="0.69"/>
<stop offset="1" stop-opacity="0"/>
</linearGradient>
<linearGradient id="paint8_linear_196_385" x1="507.19" y1="153.7" x2="427.694" y2="156.673" gradientUnits="userSpaceOnUse">
<stop offset="0.01"/>
<stop offset="0.13" stop-opacity="0.69"/>
<stop offset="1" stop-opacity="0"/>
</linearGradient>
<linearGradient id="paint9_linear_196_385" x1="439.427" y1="86.1857" x2="477.015" y2="86.1857" gradientUnits="userSpaceOnUse">
<stop stop-color="#E5C5D5"/>
<stop offset="0.42" stop-color="#EAD4D1"/>
<stop offset="1" stop-color="#F0E9CB"/>
</linearGradient>
<linearGradient id="paint10_linear_196_385" x1="533.317" y1="159.773" x2="427.314" y2="154.435" gradientUnits="userSpaceOnUse">
<stop offset="0.01"/>
<stop offset="0.13" stop-opacity="0.69"/>
<stop offset="1" stop-opacity="0"/>
</linearGradient>
<linearGradient id="paint11_linear_196_385" x1="395.897" y1="271.846" x2="419.541" y2="273.909" gradientUnits="userSpaceOnUse">
<stop stop-color="#E5C5D5"/>
<stop offset="0.42" stop-color="#EAD4D1"/>
<stop offset="1" stop-color="#F0E9CB"/>
</linearGradient>
<linearGradient id="paint12_linear_196_385" x1="407.182" y1="275.874" x2="430.934" y2="275.874" gradientUnits="userSpaceOnUse">
<stop stop-color="#E5C5D5"/>
<stop offset="0.42" stop-color="#EAD4D1"/>
<stop offset="1" stop-color="#F0E9CB"/>
</linearGradient>
<linearGradient id="paint13_linear_196_385" x1="413.966" y1="203.86" x2="443.709" y2="203.86" gradientUnits="userSpaceOnUse">
<stop stop-color="#E5C5D5"/>
<stop offset="0.42" stop-color="#EAD4D1"/>
<stop offset="1" stop-color="#F0E9CB"/>
</linearGradient>
<clipPath id="clip0_196_385">
<rect width="910" height="689" fill="white"/>
</clipPath>
</defs>
</svg>
